<svg width="3966" height="1705" xmlns="http://www.w3.org/2000/svg" xmlns:xlink="http://www.w3.org/1999/xlink" overflow="hidden"><defs><clipPath id="clip0"><rect x="85" y="429" width="3966" height="1705"/></clipPath><clipPath id="clip1"><rect x="1480" y="1815" width="217" height="222"/></clipPath><clipPath id="clip2"><rect x="1480" y="1815" width="217" height="222"/></clipPath><clipPath id="clip3"><rect x="1480" y="1815" width="217" height="222"/></clipPath><clipPath id="clip4"><rect x="238" y="1254" width="212" height="216"/></clipPath><clipPath id="clip5"><rect x="238" y="1254" width="212" height="216"/></clipPath><clipPath id="clip6"><rect x="238" y="1254" width="212" height="216"/></clipPath><clipPath id="clip7"><rect x="238" y="1556" width="212" height="215"/></clipPath><clipPath id="clip8"><rect x="238" y="1556" width="212" height="215"/></clipPath><clipPath id="clip9"><rect x="238" y="1556" width="212" height="215"/></clipPath><clipPath id="clip10"><rect x="2016" y="1815" width="216" height="222"/></clipPath><clipPath id="clip11"><rect x="2016" y="1815" width="216" height="222"/></clipPath><clipPath id="clip12"><rect x="2016" y="1815" width="216" height="222"/></clipPath><clipPath id="clip13"><rect x="2552" y="1815" width="216" height="222"/></clipPath><clipPath id="clip14"><rect x="2552" y="1815" width="216" height="222"/></clipPath><clipPath id="clip15"><rect x="2552" y="1815" width="216" height="222"/></clipPath><clipPath id="clip16"><rect x="3623" y="1815" width="216" height="222"/></clipPath><clipPath id="clip17"><rect x="3623" y="1815" width="216" height="222"/></clipPath><clipPath id="clip18"><rect x="3623" y="1815" width="216" height="222"/></clipPath><clipPath id="clip19"><rect x="236" y="953" width="214" height="219"/></clipPath><clipPath id="clip20"><rect x="236" y="953" width="214" height="219"/></clipPath><clipPath id="clip21"><rect x="236" y="953" width="214" height="219"/></clipPath><clipPath id="clip22"><rect x="237" y="653" width="213" height="218"/></clipPath><clipPath id="clip23"><rect x="237" y="653" width="213" height="218"/></clipPath><clipPath id="clip24"><rect x="237" y="653" width="213" height="218"/></clipPath><clipPath id="clip25"><rect x="3085" y="1815" width="218" height="222"/></clipPath><clipPath id="clip26"><rect x="3085" y="1815" width="218" height="222"/></clipPath><clipPath id="clip27"><rect x="3085" y="1815" width="218" height="222"/></clipPath></defs><g clip-path="url(#clip0)" transform="translate(-85 -429)"><rect x="84.9999" y="445" width="3914" height="1689" fill="#FFFFFF"/><text font-family="Calibri,Calibri_MSFontService,sans-serif" font-weight="400" font-size="92" transform="matrix(1 0 0 1 1314.59 543)">Sewing<tspan font-size="92" x="286" y="0">Thread </tspan><tspan font-size="55" x="57.7272" y="75">(</tspan><tspan font-size="55" x="74.3417" y="75">polyester</tspan><tspan font-size="55" x="276.856" y="75">, </tspan><tspan font-size="55" x="303.21" y="75">braide</tspan><tspan font-size="55" x="444.744" y="75">d</tspan><tspan font-size="55" x="473.39" y="75">)</tspan><tspan font-size="92" x="1764.14" y="0">Kevlar</tspan><tspan font-size="55" x="1777.4" y="75">(</tspan><tspan font-size="55" x="1794.02" y="75">braide</tspan><tspan font-size="55" x="1935.55" y="75">d</tspan><tspan font-size="55" x="1964.2" y="75">)</tspan><tspan font-size="92" x="1136.43" y="0">Nylon Cord</tspan><tspan font-size="92" x="592.352" y="0">Fishing</tspan><tspan font-size="92" x="873.082" y="0">Lin</tspan><tspan font-size="92" x="980.79" y="0">e</tspan><tspan font-size="55" x="660.506" y="75">(PE,  </tspan><tspan font-size="55" x="771.652" y="75">braided</tspan><tspan font-size="55" x="941.832" y="75">)</tspan><tspan font-size="92" x="2213.8" y="0">Dyneema</tspan><tspan fill="#E6EDF3" font-family="Consolas,Consolas_MSFontService,sans-serif" font-size="92" x="2568.43" y="0">®</tspan><tspan font-size="55" x="2293.73" y="75">(</tspan><tspan font-size="55" x="2310.34" y="75">UHMwPE</tspan><tspan font-size="55" x="2522.32" y="75">)</tspan></text><g clip-path="url(#clip1)"><g clip-path="url(#clip2)"><g clip-path="url(#clip3)"><path d="M186.781 47.2553 167.745 28.2188 107.5 88.4636 47.2553 28.2188 28.2188 47.2553 88.4636 107.5 28.2188 167.745 47.2553 186.781 107.5 126.537 167.745 186.781 186.781 167.745 126.537 107.5Z" fill="#FF0000" transform="matrix(1 0 0 1.02791 1481 1815)"/></g></g></g><path d="M201 1256 987.001 1256 1096 1365 987.001 1474 201 1474Z" fill="#830E7F" fill-rule="evenodd"/><text fill="#FFFFFF" font-family="Arial,Arial_MSFontService,sans-serif" font-weight="400" font-size="83" transform="matrix(1 0 0 1 482.707 1393)">Availability</text><g clip-path="url(#clip4)"><g clip-path="url(#clip5)"><g clip-path="url(#clip6)"><path d="M59.3438 145.063C59.3438 153.56 52.4555 160.448 43.9584 160.448 35.4612 160.448 28.5729 153.56 28.5729 145.063 28.5729 136.565 35.4612 129.677 43.9584 129.677 52.4555 129.677 59.3438 136.565 59.3438 145.063Z" fill="#FFFFFF" transform="matrix(1 0 0 1.0237 239 1254)"/><path d="M186.823 145.063C186.823 153.56 179.935 160.448 171.438 160.448 162.94 160.448 156.052 153.56 156.052 145.063 156.052 136.565 162.94 129.677 171.438 129.677 179.935 129.677 186.823 136.565 186.823 145.063Z" fill="#FFFFFF" transform="matrix(1 0 0 1.0237 239 1254)"/><path d="M8.79167 52.75 131.875 52.75 131.875 105.5 8.79167 105.5Z" fill="#FFFFFF" transform="matrix(1 0 0 1.0237 239 1254)"/><path d="M149.458 74.7292 162.646 74.7292C166.602 74.7292 170.119 77.3667 170.998 81.1032L175.394 96.2688C175.394 96.4886 175.614 96.4886 175.614 96.7084L149.458 96.7084 149.458 74.7292ZM162.646 65.9375 140.667 65.9375 140.667 96.7084 140.667 109.896 140.667 145.063 149.458 145.063C149.458 132.974 159.349 123.083 171.438 123.083 183.526 123.083 193.417 132.974 193.417 145.063 198.252 145.063 202.208 141.106 202.208 136.271L202.208 114.292C202.208 111.434 200.89 109.017 198.692 107.258L187.043 98.4667C185.504 97.3677 184.405 95.6094 183.966 93.8511L179.57 78.6854C177.372 71.2125 170.339 65.9375 162.646 65.9375Z" fill="#FFFFFF" transform="matrix(1 0 0 1.0237 239 1254)"/><path d="M131.875 145.063 65.9375 145.063C65.9375 132.974 56.0469 123.083 43.9584 123.083 31.8698 123.083 21.9792 132.974 21.9792 145.063L8.79167 145.063 8.79167 114.292 131.875 114.292 131.875 145.063Z" fill="#FFFFFF" transform="matrix(1 0 0 1.0237 239 1254)"/></g></g></g><path d="M201 1556 987.501 1556 1096 1664.5 987.501 1773 201 1773Z" fill="#820951" fill-rule="evenodd"/><text fill="#FFFFFF" font-family="Arial,Arial_MSFontService,sans-serif" font-weight="400" font-size="83" transform="matrix(1 0 0 1 482.707 1693)">Price</text><g clip-path="url(#clip7)"><g clip-path="url(#clip8)"><g clip-path="url(#clip9)"><path d="M189.021 156.052 182.427 162.646 30.7708 162.646 21.9792 153.854 21.9792 109.896 30.7708 101.104 182.427 101.104 189.021 107.698 189.021 156.052ZM8.79167 87.9167 8.79167 175.833 202.208 175.833 202.208 87.9167 8.79167 87.9167Z" fill="#FFFFFF" transform="matrix(1 0 0 1.01896 239 1556)"/><path d="M123.083 131.875C123.083 144.014 115.211 153.854 105.5 153.854 95.789 153.854 87.9167 144.014 87.9167 131.875 87.9167 119.736 95.789 109.896 105.5 109.896 115.211 109.896 123.083 119.736 123.083 131.875Z" fill="#FFFFFF" transform="matrix(1 0 0 1.01896 239 1556)"/><path d="M57.1459 131.875C57.1459 135.517 54.1937 138.469 50.5521 138.469 46.9105 138.469 43.9584 135.517 43.9584 131.875 43.9584 128.233 46.9105 125.281 50.5521 125.281 54.1937 125.281 57.1459 128.233 57.1459 131.875Z" fill="#FFFFFF" transform="matrix(1 0 0 1.01896 239 1556)"/><path d="M167.042 131.875C167.042 135.517 164.09 138.469 160.448 138.469 156.806 138.469 153.854 135.517 153.854 131.875 153.854 128.233 156.806 125.281 160.448 125.281 164.09 125.281 167.042 128.233 167.042 131.875Z" fill="#FFFFFF" transform="matrix(1 0 0 1.01896 239 1556)"/><path d="M144.843 45.4969 148.14 53.849 161.327 51.2115 152.096 28.1333 33.8479 76.4875 101.544 63.0802Z" fill="#FFFFFF" transform="matrix(1 0 0 1.01896 239 1556)"/><path d="M133.414 79.125 168.141 72.3115 169.679 79.125 183.087 79.125 178.691 56.7063 65.9375 79.125Z" fill="#FFFFFF" transform="matrix(1 0 0 1.01896 239 1556)"/></g></g></g><path d="M1498 756C1498 704.638 1538.52 663 1588.5 663 1638.48 663 1679 704.638 1679 756 1679 807.363 1638.48 849 1588.5 849 1538.52 849 1498 807.363 1498 756Z" fill="#FFC000" fill-rule="evenodd"/><path d="M2033 756C2033 704.638 2073.74 663 2124 663 2174.26 663 2215 704.638 2215 756 2215 807.363 2174.26 849 2124 849 2073.74 849 2033 807.363 2033 756Z" fill="#FFC000" fill-rule="evenodd"/><path d="M2569 756C2569 704.638 2609.52 663 2659.5 663 2709.48 663 2750 704.638 2750 756 2750 807.363 2709.48 849 2659.5 849 2609.52 849 2569 807.363 2569 756Z" fill="#FF0000" fill-rule="evenodd"/><path d="M3105 756C3105 704.638 3145.52 663 3195.5 663 3245.48 663 3286 704.638 3286 756 3286 807.363 3245.48 849 3195.5 849 3145.52 849 3105 807.363 3105 756Z" fill="#4EA72E" fill-rule="evenodd"/><path d="M3640 756C3640 704.638 3680.74 663 3731 663 3781.26 663 3822 704.638 3822 756 3822 807.363 3781.26 849 3731 849 3680.74 849 3640 807.363 3640 756Z" fill="#4EA72E" fill-rule="evenodd"/><path d="M1498 1063C1498 1011.64 1538.52 970 1588.5 970 1638.48 970 1679 1011.64 1679 1063 1679 1114.36 1638.48 1156 1588.5 1156 1538.52 1156 1498 1114.36 1498 1063Z" fill="#FF0000" fill-rule="evenodd"/><path d="M1498 1363.5C1498 1312.41 1538.52 1271 1588.5 1271 1638.48 1271 1679 1312.41 1679 1363.5 1679 1414.59 1638.48 1456 1588.5 1456 1538.52 1456 1498 1414.59 1498 1363.5Z" fill="#4EA72E" fill-rule="evenodd"/><path d="M2033 1063C2033 1011.64 2073.74 970 2124 970 2174.26 970 2215 1011.64 2215 1063 2215 1114.36 2174.26 1156 2124 1156 2073.74 1156 2033 1114.36 2033 1063Z" fill="#FFC000" fill-rule="evenodd"/><path d="M2569 1063C2569 1011.64 2609.52 970 2659.5 970 2709.48 970 2750 1011.64 2750 1063 2750 1114.36 2709.48 1156 2659.5 1156 2609.52 1156 2569 1114.36 2569 1063Z" fill="#4EA72E" fill-rule="evenodd"/><path d="M3105 1063C3105 1011.64 3145.52 970 3195.5 970 3245.48 970 3286 1011.64 3286 1063 3286 1114.36 3245.48 1156 3195.5 1156 3145.52 1156 3105 1114.36 3105 1063Z" fill="#FF0000" fill-rule="evenodd"/><path d="M3640 1063C3640 1011.64 3680.74 970 3731 970 3781.26 970 3822 1011.64 3822 1063 3822 1114.36 3781.26 1156 3731 1156 3680.74 1156 3640 1114.36 3640 1063Z" fill="#4EA72E" fill-rule="evenodd"/><path d="M2033 1363.5C2033 1312.41 2073.74 1271 2124 1271 2174.26 1271 2215 1312.41 2215 1363.5 2215 1414.59 2174.26 1456 2124 1456 2073.74 1456 2033 1414.59 2033 1363.5Z" fill="#4EA72E" fill-rule="evenodd"/><path d="M2569 1363.5C2569 1312.41 2609.52 1271 2659.5 1271 2709.48 1271 2750 1312.41 2750 1363.5 2750 1414.59 2709.48 1456 2659.5 1456 2609.52 1456 2569 1414.59 2569 1363.5Z" fill="#4EA72E" fill-rule="evenodd"/><path d="M3105 1363.5C3105 1312.41 3145.52 1271 3195.5 1271 3245.48 1271 3286 1312.41 3286 1363.5 3286 1414.59 3245.48 1456 3195.5 1456 3145.52 1456 3105 1414.59 3105 1363.5Z" fill="#FFC000" fill-rule="evenodd"/><path d="M3640 1363.5C3640 1312.41 3680.74 1271 3731 1271 3781.26 1271 3822 1312.41 3822 1363.5 3822 1414.59 3781.26 1456 3731 1456 3680.74 1456 3640 1414.59 3640 1363.5Z" fill="#FFC000" fill-rule="evenodd"/><g clip-path="url(#clip10)"><g clip-path="url(#clip11)"><g clip-path="url(#clip12)"><path d="M187.65 47.475 168.525 28.35 108 88.8749 47.475 28.35 28.35 47.475 88.8749 108 28.35 168.525 47.475 187.65 108 127.125 168.525 187.65 187.65 168.525 127.125 108Z" fill="#FF0000" transform="matrix(1 0 0 1.02315 2016 1815)"/></g></g></g><g clip-path="url(#clip13)"><g clip-path="url(#clip14)"><g clip-path="url(#clip15)"><path d="M187.65 47.475 168.525 28.35 108 88.8749 47.475 28.35 28.35 47.475 88.8749 108 28.35 168.525 47.475 187.65 108 127.125 168.525 187.65 187.65 168.525 127.125 108Z" fill="#FF0000" transform="matrix(1 0 0 1.02315 2552 1815)"/></g></g></g><g clip-path="url(#clip16)"><g clip-path="url(#clip17)"><g clip-path="url(#clip18)"><path d="M193.725 35.55 78.525 144.45 23.175 87.7499 4.05 105.975 77.625 181.575 96.9749 163.575 211.95 54.45Z" fill="#4EA72E" transform="matrix(1 0 0 1.02315 3623 1815)"/></g></g></g><path d="M201 1815 1172 1815 1281 1924 1172 2033 201 2033Z" fill="#4EA72E" fill-rule="evenodd"/><text fill="#FFFFFF" font-family="Calibri,Calibri_MSFontService,sans-serif" font-weight="700" font-size="147" transform="matrix(1 0 0 1 345.465 1973)">SUITABILITY</text><path d="M201 953 987.001 953 1096 1062 987.001 1171 201 1171Z" fill="#4E0C85" fill-rule="evenodd"/><text fill="#FFFFFF" font-family="Arial,Arial_MSFontService,sans-serif" font-weight="400" font-size="83" transform="matrix(1 0 0 1 482.707 1088)">Abrasion <tspan font-size="83" x="348.333" y="0">res</tspan><tspan font-size="83" x="462.917" y="0">.</tspan></text><g clip-path="url(#clip19)"><g clip-path="url(#clip20)"><g clip-path="url(#clip21)"><path d="M61.0064 141.606 101.084 141.606 101.084 150.512 61.0064 150.512Z" fill="#FFFFFF" transform="matrix(0.92068 0.390318 -0.381366 0.942291 298.841 933.745)"/><path d="M130.906 97.6251C130.906 102.527 126.933 106.5 122.031 106.5 117.13 106.5 113.156 102.527 113.156 97.6251 113.156 92.7235 117.13 88.7501 122.031 88.7501 126.933 88.7501 130.906 92.7235 130.906 97.6251Z" fill="#FFFFFF" transform="matrix(1 0 0 1.02347 237 954)"/><path d="M130.906 97.6251C130.906 102.527 126.933 106.5 122.031 106.5 117.13 106.5 113.156 102.527 113.156 97.6251 113.156 92.7235 117.13 88.7501 122.031 88.7501 126.933 88.7501 130.906 92.7235 130.906 97.6251Z" fill="#FFFFFF" transform="matrix(1 0 0 1.02347 237 954)"/><path d="M126.469 181.938C142.666 169.734 153.094 150.431 153.094 128.688 153.094 106.278 141.778 86.3094 124.694 74.3282L142.666 31.0625 136.453 28.6219 141.334 16.6406 129.131 11.5375 124.25 23.5188 118.038 21.0781 80.5407 111.381 80.5407 111.381C78.7657 115.819 79.4313 120.922 82.3157 124.472L79.8751 130.241 92.0782 135.344 94.5188 129.575C99.1782 128.909 103.172 126.025 105.169 121.588L105.169 121.588 107.609 115.375 138.006 115.375C139.116 119.591 139.781 124.028 139.781 128.688 139.781 157.975 115.819 181.938 86.5313 181.938L44.375 181.938 44.375 195.25 44.375 199.688 168.625 199.688 168.625 195.25 168.625 181.938 126.469 181.938ZM122.031 110.938C114.709 110.938 108.719 104.947 108.719 97.6251 108.719 90.3032 114.709 84.3126 122.031 84.3126 129.353 84.3126 135.344 90.3032 135.344 97.6251 135.344 104.947 129.353 110.938 122.031 110.938Z" fill="#FFFFFF" transform="matrix(1 0 0 1.02347 237 954)"/></g></g></g><path d="M201 654 987.501 654 1096 762.501 987.501 871 201 871Z" fill="#200C86" fill-rule="evenodd"/><text fill="#FFFFFF" font-family="Arial,Arial_MSFontService,sans-serif" font-weight="400" font-size="83" transform="matrix(1 0 0 1 482.707 788)">Elongation</text><g clip-path="url(#clip22)"><g clip-path="url(#clip23)"><g clip-path="url(#clip24)"><path d="M159.883 6.84584 6.84584 159.883 52.1167 205.154 204.933 52.3375 159.883 6.84584ZM162.975 75.525 145.75 92.75 132.058 79.0584 125.875 85.2417 139.567 98.9334 122.342 116.158 108.65 102.467 102.467 108.65 116.158 122.342 98.9334 139.567 85.2417 125.875 79.0584 132.058 92.75 145.75 75.525 162.975 61.8334 149.283 55.65 155.467 69.3417 169.158 52.3375 186.163 25.8375 159.663 159.883 25.6167 186.383 52.1167 169.379 69.1209 155.688 55.4292 149.283 61.8334 162.975 75.525Z" fill="#FFFFFF" transform="matrix(1 0 0 1.02358 238 653)"/></g></g></g><g clip-path="url(#clip25)"><g clip-path="url(#clip26)"><g clip-path="url(#clip27)"><path d="M187.65 47.4751 168.525 28.35 108 88.8751 47.4751 28.35 28.35 47.4751 88.8751 108 28.35 168.525 47.4751 187.65 108 127.125 168.525 187.65 187.65 168.525 127.125 108Z" fill="#FF0000" transform="matrix(1 0 0 1.02315 3086 1815)"/></g></g></g><text fill="#4EA72E" font-family="Arial,Arial_MSFontService,sans-serif" font-weight="400" font-size="83" transform="matrix(1 0 0 1 1464.72 1711)">0,05</text><path d="M1685.99 1606.37C1688.44 1606.37 1690.71 1606.5 1692.77 1606.76 1694.84 1607.01 1697.16 1607.49 1699.73 1608.2L1699.73 1617.4 1695.71 1617.4C1695.04 1615.53 1694.21 1614.05 1693.22 1612.96 1692.23 1611.86 1691.09 1611.09 1689.78 1610.63 1688.47 1610.17 1686.89 1609.94 1685.05 1609.94 1682.78 1609.94 1680.69 1610.56 1678.77 1611.8 1676.85 1613.05 1675.25 1614.89 1673.95 1617.34 1672.65 1619.78 1671.76 1622.73 1671.27 1626.19L1695.88 1626.19 1695.88 1630.08 1670.95 1630.08C1670.82 1631.24 1670.75 1632.73 1670.75 1634.54L1670.75 1635.8C1670.75 1636.25 1670.76 1636.7 1670.79 1637.13L1693 1637.13 1693 1641.02 1670.95 1641.02C1671.19 1643.7 1671.63 1646.16 1672.25 1648.42 1672.87 1650.68 1673.71 1652.61 1674.76 1654.24 1675.81 1655.86 1677.11 1657.13 1678.65 1658.04 1680.19 1658.96 1682 1659.42 1684.08 1659.42 1686.27 1659.42 1688.07 1659.19 1689.47 1658.71 1690.88 1658.24 1692.05 1657.48 1692.98 1656.44 1693.91 1655.4 1694.82 1653.86 1695.71 1651.8L1699.73 1651.8 1699.73 1660.96C1697.29 1661.61 1694.76 1662.11 1692.13 1662.46 1689.49 1662.81 1686.58 1662.99 1683.39 1662.99 1677.37 1662.99 1672.66 1661.14 1669.27 1657.44 1665.88 1653.74 1663.83 1648.26 1663.13 1641.02L1653.48 1641.02 1653.48 1637.13 1662.89 1637.13 1662.89 1635.15C1662.89 1633.5 1662.97 1631.81 1663.13 1630.08L1656.36 1630.08 1656.36 1626.19 1663.7 1626.19C1664.99 1619.79 1667.59 1614.88 1671.48 1611.48 1675.37 1608.07 1680.2 1606.37 1685.99 1606.37Z" fill="#4EA72E" fill-rule="evenodd"/><text fill="#000000" fill-opacity="0" font-family="Arial,Arial_MSFontService,sans-serif" font-size="56.6167" x="1653.48" y="1655.91">€</text><path d="M1671.27 1712.78C1673.97 1712.78 1676.18 1713.4 1677.88 1714.65 1679.58 1715.89 1680.76 1717.79 1681.4 1720.36 1683.43 1718.31 1685.07 1716.79 1686.33 1715.82 1687.59 1714.85 1688.87 1714.1 1690.18 1713.57 1691.49 1713.05 1692.9 1712.78 1694.41 1712.78 1696.22 1712.78 1697.78 1713.05 1699.09 1713.57 1700.41 1714.1 1701.51 1714.91 1702.42 1716 1703.32 1717.1 1703.99 1718.47 1704.4 1720.12 1704.82 1721.77 1705.03 1723.98 1705.03 1726.76L1705.03 1742.04C1705.03 1744.1 1705.1 1745.51 1705.23 1746.3 1705.37 1747.08 1705.57 1747.69 1705.82 1748.12 1706.08 1748.55 1706.46 1748.93 1706.98 1749.24 1707.49 1749.55 1708.36 1749.86 1709.57 1750.19L1709.57 1752.17 1693.64 1752.17 1693.64 1750.19C1694.7 1749.86 1695.45 1749.58 1695.91 1749.34 1696.37 1749.09 1696.76 1748.76 1697.07 1748.32 1697.38 1747.89 1697.62 1747.22 1697.8 1746.32 1697.97 1745.41 1698.06 1744.04 1698.06 1742.2L1698.06 1731.59C1698.06 1729.29 1698 1727.39 1697.88 1725.89 1697.76 1724.39 1697.57 1723.2 1697.31 1722.31 1697.06 1721.41 1696.74 1720.71 1696.38 1720.2 1696.01 1719.68 1695.6 1719.24 1695.14 1718.86 1694.68 1718.48 1694.14 1718.19 1693.52 1717.97 1692.9 1717.75 1692.08 1717.64 1691.05 1717.64 1689.97 1717.64 1688.96 1717.86 1688.03 1718.29 1687.1 1718.73 1686.09 1719.46 1684.99 1720.48 1683.9 1721.51 1683.11 1722.54 1682.62 1723.58 1682.13 1724.62 1681.89 1725.84 1681.89 1727.25L1681.89 1742.04C1681.89 1744.1 1681.96 1745.51 1682.09 1746.3 1682.23 1747.08 1682.42 1747.69 1682.68 1748.12 1682.94 1748.55 1683.32 1748.93 1683.84 1749.24 1684.35 1749.55 1685.21 1749.86 1686.43 1750.19L1686.43 1752.17 1670.5 1752.17 1670.5 1750.19C1671.56 1749.86 1672.31 1749.58 1672.77 1749.34 1673.23 1749.09 1673.62 1748.76 1673.93 1748.32 1674.24 1747.89 1674.48 1747.22 1674.66 1746.32 1674.83 1745.41 1674.92 1744.04 1674.92 1742.2L1674.92 1731.59C1674.92 1729.18 1674.85 1727.22 1674.72 1725.71 1674.58 1724.2 1674.37 1722.98 1674.09 1722.06 1673.81 1721.14 1673.44 1720.4 1673 1719.83 1672.55 1719.27 1672.1 1718.83 1671.64 1718.54 1671.18 1718.24 1670.64 1718.02 1670.02 1717.87 1669.4 1717.72 1668.69 1717.64 1667.91 1717.64 1666.8 1717.64 1665.76 1717.89 1664.79 1718.39 1663.82 1718.89 1662.82 1719.62 1661.81 1720.56 1660.8 1721.51 1660.03 1722.49 1659.52 1723.52 1659.01 1724.55 1658.75 1725.66 1658.75 1726.84L1658.75 1742.04C1658.75 1743.58 1658.79 1744.76 1658.87 1745.57 1658.95 1746.38 1659.08 1747.01 1659.26 1747.47 1659.43 1747.93 1659.66 1748.3 1659.93 1748.59 1660.2 1748.87 1660.58 1749.14 1661.08 1749.4 1661.58 1749.65 1662.33 1749.92 1663.33 1750.19L1663.33 1752.17 1647.44 1752.17 1647.44 1750.19C1648.47 1749.86 1649.21 1749.58 1649.65 1749.34 1650.1 1749.09 1650.48 1748.76 1650.81 1748.32 1651.13 1747.89 1651.37 1747.23 1651.54 1746.34 1651.7 1745.45 1651.78 1744.06 1651.78 1742.16L1651.78 1724.49C1651.78 1722.76 1651.75 1721.37 1651.7 1720.32 1651.64 1719.27 1651.46 1718.42 1651.13 1717.79 1650.81 1717.15 1650.31 1716.68 1649.65 1716.37 1648.99 1716.06 1648.05 1715.79 1646.83 1715.58L1646.83 1713.43 1656.32 1713.07 1658.79 1713.07 1658.34 1719.67 1658.91 1719.83C1660.53 1718.21 1661.86 1716.99 1662.9 1716.17 1663.94 1715.34 1664.95 1714.68 1665.92 1714.18 1666.9 1713.68 1667.81 1713.32 1668.66 1713.11 1669.51 1712.89 1670.38 1712.78 1671.27 1712.78Z" fill="#4EA72E" fill-rule="evenodd"/><text fill="#000000" fill-opacity="0" font-family="Arial,Arial_MSFontService,sans-serif" font-size="39.3926" x="1646.83" y="1747.25">m</text><path d="M1643.86 1684.67 1678.36 1684.67 1712.86 1684.67 1712.86 1689.67 1678.36 1689.67 1643.86 1689.67Z" fill="#4EA72E" fill-rule="evenodd"/><text fill="#FFC000" font-family="Arial,Arial_MSFontService,sans-serif" font-weight="400" font-size="83" transform="matrix(1 0 0 1 2000.33 1711)">0,12</text><path d="M2221.6 1606.37C2224.06 1606.37 2226.32 1606.5 2228.39 1606.76 2230.45 1607.01 2232.77 1607.49 2235.34 1608.2L2235.34 1617.4 2231.32 1617.4C2230.65 1615.53 2229.82 1614.05 2228.83 1612.96 2227.85 1611.86 2226.7 1611.09 2225.39 1610.63 2224.08 1610.17 2222.5 1609.94 2220.67 1609.94 2218.4 1609.94 2216.3 1610.56 2214.38 1611.8 2212.47 1613.05 2210.86 1614.89 2209.56 1617.34 2208.26 1619.78 2207.37 1622.73 2206.89 1626.19L2231.49 1626.19 2231.49 1630.08 2206.56 1630.08C2206.43 1631.24 2206.36 1632.73 2206.36 1634.54L2206.36 1635.8C2206.36 1636.25 2206.37 1636.7 2206.4 1637.13L2228.61 1637.13 2228.61 1641.02 2206.56 1641.02C2206.8 1643.7 2207.24 1646.16 2207.86 1648.42 2208.48 1650.68 2209.32 1652.61 2210.37 1654.24 2211.42 1655.86 2212.72 1657.13 2214.26 1658.04 2215.8 1658.96 2217.61 1659.42 2219.69 1659.42 2221.88 1659.42 2223.68 1659.19 2225.08 1658.71 2226.49 1658.24 2227.66 1657.48 2228.59 1656.44 2229.52 1655.4 2230.43 1653.86 2231.32 1651.8L2235.34 1651.8 2235.34 1660.96C2232.9 1661.61 2230.37 1662.11 2227.74 1662.46 2225.1 1662.81 2222.19 1662.99 2219 1662.99 2212.98 1662.99 2208.27 1661.14 2204.88 1657.44 2201.49 1653.74 2199.44 1648.26 2198.74 1641.02L2189.09 1641.02 2189.09 1637.13 2198.5 1637.13 2198.5 1635.15C2198.5 1633.5 2198.58 1631.81 2198.74 1630.08L2191.97 1630.08 2191.97 1626.19 2199.31 1626.19C2200.6 1619.79 2203.2 1614.88 2207.09 1611.48 2210.98 1608.07 2215.82 1606.37 2221.6 1606.37Z" fill="#FFC000" fill-rule="evenodd"/><text fill="#000000" fill-opacity="0" font-family="Arial,Arial_MSFontService,sans-serif" font-size="56.6167" x="2189.09" y="1655.91">€</text><path d="M2206.88 1712.78C2209.59 1712.78 2211.79 1713.4 2213.49 1714.65 2215.19 1715.89 2216.37 1717.79 2217.02 1720.36 2219.04 1718.31 2220.68 1716.79 2221.94 1715.82 2223.2 1714.85 2224.48 1714.1 2225.79 1713.57 2227.1 1713.05 2228.51 1712.78 2230.02 1712.78 2231.84 1712.78 2233.4 1713.05 2234.71 1713.57 2236.02 1714.1 2237.12 1714.91 2238.03 1716 2238.93 1717.1 2239.6 1718.47 2240.01 1720.12 2240.43 1721.77 2240.64 1723.98 2240.64 1726.76L2240.64 1742.04C2240.64 1744.1 2240.71 1745.51 2240.85 1746.3 2240.98 1747.08 2241.18 1747.69 2241.43 1748.12 2241.69 1748.55 2242.07 1748.93 2242.59 1749.24 2243.1 1749.55 2243.97 1749.86 2245.18 1750.19L2245.18 1752.17 2229.25 1752.17 2229.25 1750.19C2230.31 1749.86 2231.07 1749.58 2231.52 1749.34 2231.98 1749.09 2232.37 1748.76 2232.68 1748.32 2232.99 1747.89 2233.23 1747.22 2233.41 1746.32 2233.58 1745.41 2233.67 1744.04 2233.67 1742.2L2233.67 1731.59C2233.67 1729.29 2233.61 1727.39 2233.49 1725.89 2233.37 1724.39 2233.18 1723.2 2232.92 1722.31 2232.67 1721.41 2232.36 1720.71 2231.99 1720.2 2231.63 1719.68 2231.21 1719.24 2230.75 1718.86 2230.3 1718.48 2229.75 1718.19 2229.13 1717.97 2228.51 1717.75 2227.69 1717.64 2226.66 1717.64 2225.58 1717.64 2224.57 1717.86 2223.64 1718.29 2222.71 1718.73 2221.7 1719.46 2220.6 1720.48 2219.51 1721.51 2218.72 1722.54 2218.23 1723.58 2217.75 1724.62 2217.5 1725.84 2217.5 1727.25L2217.5 1742.04C2217.5 1744.1 2217.57 1745.51 2217.7 1746.3 2217.84 1747.08 2218.04 1747.69 2218.29 1748.12 2218.55 1748.55 2218.93 1748.93 2219.45 1749.24 2219.96 1749.55 2220.83 1749.86 2222.04 1750.19L2222.04 1752.17 2206.11 1752.17 2206.11 1750.19C2207.17 1749.86 2207.92 1749.58 2208.38 1749.34 2208.84 1749.09 2209.23 1748.76 2209.54 1748.32 2209.85 1747.89 2210.09 1747.22 2210.27 1746.32 2210.44 1745.41 2210.53 1744.04 2210.53 1742.2L2210.53 1731.59C2210.53 1729.18 2210.46 1727.22 2210.33 1725.71 2210.19 1724.2 2209.98 1722.98 2209.7 1722.06 2209.42 1721.14 2209.05 1720.4 2208.61 1719.83 2208.16 1719.27 2207.71 1718.83 2207.25 1718.54 2206.79 1718.24 2206.25 1718.02 2205.63 1717.87 2205.01 1717.72 2204.3 1717.64 2203.52 1717.64 2202.41 1717.64 2201.37 1717.89 2200.4 1718.39 2199.43 1718.89 2198.43 1719.62 2197.42 1720.56 2196.41 1721.51 2195.64 1722.49 2195.13 1723.52 2194.62 1724.55 2194.36 1725.66 2194.36 1726.84L2194.36 1742.04C2194.36 1743.58 2194.4 1744.76 2194.48 1745.57 2194.56 1746.38 2194.69 1747.01 2194.87 1747.47 2195.04 1747.93 2195.27 1748.3 2195.54 1748.59 2195.81 1748.87 2196.19 1749.14 2196.69 1749.4 2197.19 1749.65 2197.94 1749.92 2198.94 1750.19L2198.94 1752.17 2183.05 1752.17 2183.05 1750.19C2184.08 1749.86 2184.82 1749.58 2185.26 1749.34 2185.71 1749.09 2186.09 1748.76 2186.42 1748.32 2186.74 1747.89 2186.98 1747.23 2187.15 1746.34 2187.31 1745.45 2187.39 1744.06 2187.39 1742.16L2187.39 1724.49C2187.39 1722.76 2187.36 1721.37 2187.31 1720.32 2187.26 1719.27 2187.07 1718.42 2186.74 1717.79 2186.42 1717.15 2185.92 1716.68 2185.26 1716.37 2184.6 1716.06 2183.66 1715.79 2182.45 1715.58L2182.45 1713.43 2191.93 1713.07 2194.4 1713.07 2193.96 1719.67 2194.52 1719.83C2196.14 1718.21 2197.47 1716.99 2198.51 1716.17 2199.56 1715.34 2200.56 1714.68 2201.53 1714.18 2202.51 1713.68 2203.42 1713.32 2204.27 1713.11 2205.12 1712.89 2205.99 1712.78 2206.88 1712.78Z" fill="#FFC000" fill-rule="evenodd"/><text fill="#000000" fill-opacity="0" font-family="Arial,Arial_MSFontService,sans-serif" font-size="39.3926" x="2182.45" y="1747.25">m</text><path d="M2179.47 1684.67 2213.97 1684.67 2248.47 1684.67 2248.47 1689.67 2213.97 1689.67 2179.47 1689.67Z" fill="#FFC000" fill-rule="evenodd"/><text fill="#4EA72E" font-family="Arial,Arial_MSFontService,sans-serif" font-weight="400" font-size="83" transform="matrix(1 0 0 1 2535.94 1711)">0,03</text><path d="M2757.21 1606.37C2759.67 1606.37 2761.93 1606.5 2764 1606.76 2766.06 1607.01 2768.38 1607.49 2770.95 1608.2L2770.95 1617.4 2766.93 1617.4C2766.26 1615.53 2765.43 1614.05 2764.44 1612.96 2763.46 1611.86 2762.31 1611.09 2761 1610.63 2759.69 1610.17 2758.11 1609.94 2756.28 1609.94 2754.01 1609.94 2751.91 1610.56 2749.99 1611.8 2748.08 1613.05 2746.47 1614.89 2745.17 1617.34 2743.87 1619.78 2742.98 1622.73 2742.5 1626.19L2767.1 1626.19 2767.1 1630.08 2742.17 1630.08C2742.04 1631.24 2741.97 1632.73 2741.97 1634.54L2741.97 1635.8C2741.97 1636.25 2741.98 1636.7 2742.01 1637.13L2764.22 1637.13 2764.22 1641.02 2742.17 1641.02C2742.42 1643.7 2742.85 1646.16 2743.47 1648.42 2744.09 1650.68 2744.93 1652.61 2745.98 1654.24 2747.04 1655.86 2748.33 1657.13 2749.87 1658.04 2751.41 1658.96 2753.22 1659.42 2755.3 1659.42 2757.49 1659.42 2759.29 1659.19 2760.69 1658.71 2762.1 1658.24 2763.27 1657.48 2764.2 1656.44 2765.13 1655.4 2766.04 1653.86 2766.93 1651.8L2770.95 1651.8 2770.95 1660.96C2768.52 1661.61 2765.98 1662.11 2763.35 1662.46 2760.71 1662.81 2757.8 1662.99 2754.61 1662.99 2748.59 1662.99 2743.88 1661.14 2740.49 1657.44 2737.1 1653.74 2735.05 1648.26 2734.35 1641.02L2724.71 1641.02 2724.71 1637.13 2734.11 1637.13 2734.11 1635.15C2734.11 1633.5 2734.19 1631.81 2734.35 1630.08L2727.58 1630.08 2727.58 1626.19 2734.92 1626.19C2736.21 1619.79 2738.81 1614.88 2742.7 1611.48 2746.59 1608.07 2751.43 1606.37 2757.21 1606.37Z" fill="#4EA72E" fill-rule="evenodd"/><text fill="#000000" fill-opacity="0" font-family="Arial,Arial_MSFontService,sans-serif" font-size="56.6167" x="2724.71" y="1655.91">€</text><path d="M2742.49 1712.78C2745.2 1712.78 2747.4 1713.4 2749.1 1714.65 2750.8 1715.89 2751.98 1717.79 2752.63 1720.36 2754.65 1718.31 2756.29 1716.79 2757.55 1715.82 2758.81 1714.85 2760.09 1714.1 2761.4 1713.57 2762.71 1713.05 2764.12 1712.78 2765.64 1712.78 2767.45 1712.78 2769.01 1713.05 2770.32 1713.57 2771.63 1714.1 2772.73 1714.91 2773.64 1716 2774.54 1717.1 2775.21 1718.47 2775.63 1720.12 2776.04 1721.77 2776.25 1723.98 2776.25 1726.76L2776.25 1742.04C2776.25 1744.1 2776.32 1745.51 2776.46 1746.3 2776.59 1747.08 2776.79 1747.69 2777.04 1748.12 2777.3 1748.55 2777.69 1748.93 2778.2 1749.24 2778.71 1749.55 2779.58 1749.86 2780.79 1750.19L2780.79 1752.17 2764.87 1752.17 2764.87 1750.19C2765.92 1749.86 2766.68 1749.58 2767.14 1749.34 2767.59 1749.09 2767.98 1748.76 2768.29 1748.32 2768.6 1747.89 2768.84 1747.22 2769.02 1746.32 2769.2 1745.41 2769.28 1744.04 2769.28 1742.2L2769.28 1731.59C2769.28 1729.29 2769.22 1727.39 2769.1 1725.89 2768.98 1724.39 2768.79 1723.2 2768.53 1722.31 2768.28 1721.41 2767.97 1720.71 2767.6 1720.2 2767.24 1719.68 2766.82 1719.24 2766.37 1718.86 2765.91 1718.48 2765.37 1718.19 2764.74 1717.97 2764.12 1717.75 2763.3 1717.64 2762.27 1717.64 2761.19 1717.64 2760.18 1717.86 2759.25 1718.29 2758.32 1718.73 2757.31 1719.46 2756.21 1720.48 2755.12 1721.51 2754.33 1722.54 2753.84 1723.58 2753.36 1724.62 2753.11 1725.84 2753.11 1727.25L2753.11 1742.04C2753.11 1744.1 2753.18 1745.51 2753.32 1746.3 2753.45 1747.08 2753.65 1747.69 2753.9 1748.12 2754.16 1748.55 2754.54 1748.93 2755.06 1749.24 2755.57 1749.55 2756.44 1749.86 2757.65 1750.19L2757.65 1752.17 2741.72 1752.17 2741.72 1750.19C2742.78 1749.86 2743.53 1749.58 2743.99 1749.34 2744.45 1749.09 2744.84 1748.76 2745.15 1748.32 2745.46 1747.89 2745.7 1747.22 2745.88 1746.32 2746.05 1745.41 2746.14 1744.04 2746.14 1742.2L2746.14 1731.59C2746.14 1729.18 2746.07 1727.22 2745.94 1725.71 2745.8 1724.2 2745.59 1722.98 2745.31 1722.06 2745.03 1721.14 2744.66 1720.4 2744.22 1719.83 2743.77 1719.27 2743.32 1718.83 2742.86 1718.54 2742.4 1718.24 2741.86 1718.02 2741.24 1717.87 2740.62 1717.72 2739.91 1717.64 2739.13 1717.64 2738.02 1717.64 2736.98 1717.89 2736.01 1718.39 2735.04 1718.89 2734.04 1719.62 2733.03 1720.56 2732.02 1721.51 2731.26 1722.49 2730.74 1723.52 2730.23 1724.55 2729.97 1725.66 2729.97 1726.84L2729.97 1742.04C2729.97 1743.58 2730.01 1744.76 2730.09 1745.57 2730.17 1746.38 2730.3 1747.01 2730.48 1747.47 2730.65 1747.93 2730.88 1748.3 2731.15 1748.59 2731.42 1748.87 2731.8 1749.14 2732.3 1749.4 2732.8 1749.65 2733.55 1749.92 2734.55 1750.19L2734.55 1752.17 2718.66 1752.17 2718.66 1750.19C2719.69 1749.86 2720.43 1749.58 2720.87 1749.34 2721.32 1749.09 2721.7 1748.76 2722.03 1748.32 2722.35 1747.89 2722.6 1747.23 2722.76 1746.34 2722.92 1745.45 2723 1744.06 2723 1742.16L2723 1724.49C2723 1722.76 2722.97 1721.37 2722.92 1720.32 2722.87 1719.27 2722.68 1718.42 2722.35 1717.79 2722.03 1717.15 2721.54 1716.68 2720.87 1716.37 2720.21 1716.06 2719.27 1715.79 2718.06 1715.58L2718.06 1713.43 2727.54 1713.07 2730.01 1713.07 2729.57 1719.67 2730.13 1719.83C2731.75 1718.21 2733.09 1716.99 2734.13 1716.17 2735.17 1715.34 2736.17 1714.68 2737.15 1714.18 2738.12 1713.68 2739.03 1713.32 2739.88 1713.11 2740.73 1712.89 2741.6 1712.78 2742.49 1712.78Z" fill="#4EA72E" fill-rule="evenodd"/><text fill="#000000" fill-opacity="0" font-family="Arial,Arial_MSFontService,sans-serif" font-size="39.3926" x="2718.06" y="1747.25">m</text><path d="M2715.08 1684.67 2749.58 1684.67 2784.08 1684.67 2784.08 1689.67 2749.58 1689.67 2715.08 1689.67Z" fill="#4EA72E" fill-rule="evenodd"/><text fill="#FF0000" font-family="Arial,Arial_MSFontService,sans-serif" font-weight="400" font-size="83" transform="matrix(1 0 0 1 3071.55 1711)">0,63</text><path d="M3292.82 1606.37C3295.28 1606.37 3297.54 1606.5 3299.61 1606.76 3301.67 1607.01 3303.99 1607.49 3306.56 1608.2L3306.56 1617.4 3302.55 1617.4C3301.87 1615.53 3301.04 1614.05 3300.05 1612.96 3299.07 1611.86 3297.92 1611.09 3296.61 1610.63 3295.3 1610.17 3293.72 1609.94 3291.89 1609.94 3289.62 1609.94 3287.52 1610.56 3285.6 1611.8 3283.69 1613.05 3282.08 1614.89 3280.78 1617.34 3279.49 1619.78 3278.59 1622.73 3278.11 1626.19L3302.71 1626.19 3302.71 1630.08 3277.78 1630.08C3277.65 1631.24 3277.58 1632.73 3277.58 1634.54L3277.58 1635.8C3277.58 1636.25 3277.59 1636.7 3277.62 1637.13L3299.83 1637.13 3299.83 1641.02 3277.78 1641.02C3278.03 1643.7 3278.46 1646.16 3279.08 1648.42 3279.7 1650.68 3280.54 1652.61 3281.59 1654.24 3282.65 1655.86 3283.94 1657.13 3285.48 1658.04 3287.02 1658.96 3288.83 1659.42 3290.91 1659.42 3293.1 1659.42 3294.9 1659.19 3296.3 1658.71 3297.71 1658.24 3298.88 1657.48 3299.81 1656.44 3300.74 1655.4 3301.65 1653.86 3302.55 1651.8L3306.56 1651.8 3306.56 1660.96C3304.13 1661.61 3301.59 1662.11 3298.96 1662.46 3296.32 1662.81 3293.41 1662.99 3290.23 1662.99 3284.2 1662.99 3279.49 1661.14 3276.1 1657.44 3272.71 1653.74 3270.66 1648.26 3269.96 1641.02L3260.32 1641.02 3260.32 1637.13 3269.72 1637.13 3269.72 1635.15C3269.72 1633.5 3269.8 1631.81 3269.96 1630.08L3263.19 1630.08 3263.19 1626.19 3270.53 1626.19C3271.83 1619.79 3274.42 1614.88 3278.31 1611.48 3282.2 1608.07 3287.04 1606.37 3292.82 1606.37Z" fill="#FF0000" fill-rule="evenodd"/><text fill="#000000" fill-opacity="0" font-family="Arial,Arial_MSFontService,sans-serif" font-size="56.6167" x="3260.32" y="1655.91">€</text><path d="M3278.11 1712.78C3280.81 1712.78 3283.01 1713.4 3284.71 1714.65 3286.41 1715.89 3287.59 1717.79 3288.24 1720.36 3290.26 1718.31 3291.91 1716.79 3293.16 1715.82 3294.42 1714.85 3295.7 1714.1 3297.01 1713.57 3298.32 1713.05 3299.73 1712.78 3301.25 1712.78 3303.06 1712.78 3304.62 1713.05 3305.93 1713.57 3307.24 1714.1 3308.35 1714.91 3309.25 1716 3310.16 1717.1 3310.82 1718.47 3311.24 1720.12 3311.66 1721.77 3311.86 1723.98 3311.86 1726.76L3311.86 1742.04C3311.86 1744.1 3311.93 1745.51 3312.07 1746.3 3312.2 1747.08 3312.4 1747.69 3312.66 1748.12 3312.91 1748.55 3313.3 1748.93 3313.81 1749.24 3314.32 1749.55 3315.19 1749.86 3316.4 1750.19L3316.4 1752.17 3300.48 1752.17 3300.48 1750.19C3301.53 1749.86 3302.29 1749.58 3302.75 1749.34 3303.21 1749.09 3303.59 1748.76 3303.9 1748.32 3304.21 1747.89 3304.46 1747.22 3304.63 1746.32 3304.81 1745.41 3304.89 1744.04 3304.89 1742.2L3304.89 1731.59C3304.89 1729.29 3304.83 1727.39 3304.71 1725.89 3304.59 1724.39 3304.4 1723.2 3304.14 1722.31 3303.89 1721.41 3303.58 1720.71 3303.21 1720.2 3302.85 1719.68 3302.44 1719.24 3301.98 1718.86 3301.52 1718.48 3300.98 1718.19 3300.35 1717.97 3299.73 1717.75 3298.91 1717.64 3297.88 1717.64 3296.8 1717.64 3295.8 1717.86 3294.86 1718.29 3293.93 1718.73 3292.92 1719.46 3291.82 1720.48 3290.73 1721.51 3289.94 1722.54 3289.45 1723.58 3288.97 1724.62 3288.72 1725.84 3288.72 1727.25L3288.72 1742.04C3288.72 1744.1 3288.79 1745.51 3288.93 1746.3 3289.06 1747.08 3289.26 1747.69 3289.51 1748.12 3289.77 1748.55 3290.16 1748.93 3290.67 1749.24 3291.18 1749.55 3292.05 1749.86 3293.26 1750.19L3293.26 1752.17 3277.34 1752.17 3277.34 1750.19C3278.39 1749.86 3279.15 1749.58 3279.6 1749.34 3280.06 1749.09 3280.45 1748.76 3280.76 1748.32 3281.07 1747.89 3281.31 1747.22 3281.49 1746.32 3281.67 1745.41 3281.75 1744.04 3281.75 1742.2L3281.75 1731.59C3281.75 1729.18 3281.69 1727.22 3281.55 1725.71 3281.42 1724.2 3281.21 1722.98 3280.92 1722.06 3280.64 1721.14 3280.27 1720.4 3279.83 1719.83 3279.38 1719.27 3278.93 1718.83 3278.47 1718.54 3278.01 1718.24 3277.47 1718.02 3276.85 1717.87 3276.23 1717.72 3275.53 1717.64 3274.74 1717.64 3273.63 1717.64 3272.59 1717.89 3271.62 1718.39 3270.65 1718.89 3269.66 1719.62 3268.64 1720.56 3267.63 1721.51 3266.87 1722.49 3266.35 1723.52 3265.84 1724.55 3265.58 1725.66 3265.58 1726.84L3265.58 1742.04C3265.58 1743.58 3265.62 1744.76 3265.7 1745.57 3265.79 1746.38 3265.91 1747.01 3266.09 1747.47 3266.26 1747.93 3266.49 1748.3 3266.76 1748.59 3267.03 1748.87 3267.41 1749.14 3267.91 1749.4 3268.41 1749.65 3269.16 1749.92 3270.16 1750.19L3270.16 1752.17 3254.28 1752.17 3254.28 1750.19C3255.3 1749.86 3256.04 1749.58 3256.48 1749.34 3256.93 1749.09 3257.31 1748.76 3257.64 1748.32 3257.96 1747.89 3258.21 1747.23 3258.37 1746.34 3258.53 1745.45 3258.61 1744.06 3258.61 1742.16L3258.61 1724.49C3258.61 1722.76 3258.58 1721.37 3258.53 1720.32 3258.48 1719.27 3258.29 1718.42 3257.96 1717.79 3257.64 1717.15 3257.15 1716.68 3256.48 1716.37 3255.82 1716.06 3254.88 1715.79 3253.67 1715.58L3253.67 1713.43 3263.15 1713.07 3265.62 1713.07 3265.18 1719.67 3265.74 1719.83C3267.37 1718.21 3268.7 1716.99 3269.74 1716.17 3270.78 1715.34 3271.78 1714.68 3272.76 1714.18 3273.73 1713.68 3274.64 1713.32 3275.49 1713.11 3276.34 1712.89 3277.21 1712.78 3278.11 1712.78Z" fill="#FF0000" fill-rule="evenodd"/><text fill="#000000" fill-opacity="0" font-family="Arial,Arial_MSFontService,sans-serif" font-size="39.3926" x="3253.67" y="1747.25">m</text><path d="M3250.69 1684.67 3285.19 1684.67 3319.69 1684.67 3319.69 1689.67 3285.19 1689.67 3250.69 1689.67Z" fill="#FF0000" fill-rule="evenodd"/><text fill="#FFC000" font-family="Arial,Arial_MSFontService,sans-serif" font-weight="400" font-size="83" transform="matrix(1 0 0 1 3607.16 1711)">0,12</text><path d="M3828.43 1606.37C3830.89 1606.37 3833.15 1606.5 3835.22 1606.76 3837.28 1607.01 3839.6 1607.49 3842.17 1608.2L3842.17 1617.4 3838.16 1617.4C3837.48 1615.53 3836.65 1614.05 3835.66 1612.96 3834.68 1611.86 3833.53 1611.09 3832.22 1610.63 3830.91 1610.17 3829.33 1609.94 3827.5 1609.94 3825.23 1609.94 3823.13 1610.56 3821.22 1611.8 3819.3 1613.05 3817.69 1614.89 3816.39 1617.34 3815.1 1619.78 3814.2 1622.73 3813.72 1626.19L3838.32 1626.19 3838.32 1630.08 3813.39 1630.08C3813.26 1631.24 3813.19 1632.73 3813.19 1634.54L3813.19 1635.8C3813.19 1636.25 3813.2 1636.7 3813.23 1637.13L3835.44 1637.13 3835.44 1641.02 3813.39 1641.02C3813.64 1643.7 3814.07 1646.16 3814.69 1648.42 3815.31 1650.68 3816.15 1652.61 3817.2 1654.24 3818.26 1655.86 3819.55 1657.13 3821.09 1658.04 3822.63 1658.96 3824.44 1659.42 3826.52 1659.42 3828.71 1659.42 3830.51 1659.19 3831.92 1658.71 3833.32 1658.24 3834.49 1657.48 3835.42 1656.44 3836.35 1655.4 3837.26 1653.86 3838.16 1651.8L3842.17 1651.8 3842.17 1660.96C3839.74 1661.61 3837.2 1662.11 3834.57 1662.46 3831.94 1662.81 3829.02 1662.99 3825.84 1662.99 3819.81 1662.99 3815.1 1661.14 3811.71 1657.44 3808.32 1653.74 3806.27 1648.26 3805.57 1641.02L3795.93 1641.02 3795.93 1637.13 3805.33 1637.13 3805.33 1635.15C3805.33 1633.5 3805.41 1631.81 3805.57 1630.08L3798.8 1630.08 3798.8 1626.19 3806.14 1626.19C3807.44 1619.79 3810.03 1614.88 3813.92 1611.48 3817.81 1608.07 3822.65 1606.37 3828.43 1606.37Z" fill="#FFC000" fill-rule="evenodd"/><text fill="#000000" fill-opacity="0" font-family="Arial,Arial_MSFontService,sans-serif" font-size="56.6167" x="3795.93" y="1655.91">€</text><path d="M3813.72 1712.78C3816.42 1712.78 3818.62 1713.4 3820.32 1714.65 3822.02 1715.89 3823.2 1717.79 3823.85 1720.36 3825.87 1718.31 3827.52 1716.79 3828.77 1715.82 3830.03 1714.85 3831.31 1714.1 3832.62 1713.57 3833.93 1713.05 3835.34 1712.78 3836.86 1712.78 3838.67 1712.78 3840.23 1713.05 3841.54 1713.57 3842.85 1714.1 3843.96 1714.91 3844.86 1716 3845.77 1717.1 3846.43 1718.47 3846.85 1720.12 3847.27 1721.77 3847.48 1723.98 3847.48 1726.76L3847.48 1742.04C3847.48 1744.1 3847.54 1745.51 3847.68 1746.3 3847.81 1747.08 3848.01 1747.69 3848.27 1748.12 3848.52 1748.55 3848.91 1748.93 3849.42 1749.24 3849.93 1749.55 3850.8 1749.86 3852.01 1750.19L3852.01 1752.17 3836.09 1752.17 3836.09 1750.19C3837.14 1749.86 3837.9 1749.58 3838.36 1749.34 3838.82 1749.09 3839.2 1748.76 3839.51 1748.32 3839.82 1747.89 3840.07 1747.22 3840.24 1746.32 3840.42 1745.41 3840.5 1744.04 3840.5 1742.2L3840.5 1731.59C3840.5 1729.29 3840.44 1727.39 3840.32 1725.89 3840.2 1724.39 3840.01 1723.2 3839.76 1722.31 3839.5 1721.41 3839.19 1720.71 3838.82 1720.2 3838.46 1719.68 3838.05 1719.24 3837.59 1718.86 3837.13 1718.48 3836.59 1718.19 3835.97 1717.97 3835.34 1717.75 3834.52 1717.64 3833.49 1717.64 3832.41 1717.64 3831.41 1717.86 3830.47 1718.29 3829.54 1718.73 3828.53 1719.46 3827.43 1720.48 3826.34 1721.51 3825.55 1722.54 3825.06 1723.58 3824.58 1724.62 3824.33 1725.84 3824.33 1727.25L3824.33 1742.04C3824.33 1744.1 3824.4 1745.51 3824.54 1746.3 3824.67 1747.08 3824.87 1747.69 3825.12 1748.12 3825.38 1748.55 3825.77 1748.93 3826.28 1749.24 3826.79 1749.55 3827.66 1749.86 3828.87 1750.19L3828.87 1752.17 3812.95 1752.17 3812.95 1750.19C3814 1749.86 3814.76 1749.58 3815.22 1749.34 3815.68 1749.09 3816.06 1748.76 3816.37 1748.32 3816.68 1747.89 3816.92 1747.22 3817.1 1746.32 3817.28 1745.41 3817.36 1744.04 3817.36 1742.2L3817.36 1731.59C3817.36 1729.18 3817.3 1727.22 3817.16 1725.71 3817.03 1724.2 3816.82 1722.98 3816.53 1722.06 3816.25 1721.14 3815.88 1720.4 3815.44 1719.83 3814.99 1719.27 3814.54 1718.83 3814.08 1718.54 3813.62 1718.24 3813.08 1718.02 3812.46 1717.87 3811.84 1717.72 3811.14 1717.64 3810.35 1717.64 3809.24 1717.64 3808.2 1717.89 3807.23 1718.39 3806.26 1718.89 3805.27 1719.62 3804.25 1720.56 3803.24 1721.51 3802.48 1722.49 3801.96 1723.52 3801.45 1724.55 3801.19 1725.66 3801.19 1726.84L3801.19 1742.04C3801.19 1743.58 3801.23 1744.76 3801.31 1745.57 3801.4 1746.38 3801.52 1747.01 3801.7 1747.47 3801.88 1747.93 3802.1 1748.3 3802.37 1748.59 3802.64 1748.87 3803.02 1749.14 3803.52 1749.4 3804.02 1749.65 3804.77 1749.92 3805.77 1750.19L3805.77 1752.17 3789.89 1752.17 3789.89 1750.19C3790.91 1749.86 3791.65 1749.58 3792.09 1749.34 3792.54 1749.09 3792.93 1748.76 3793.25 1748.32 3793.57 1747.89 3793.82 1747.23 3793.98 1746.34 3794.14 1745.45 3794.22 1744.06 3794.22 1742.16L3794.22 1724.49C3794.22 1722.76 3794.2 1721.37 3794.14 1720.32 3794.09 1719.27 3793.9 1718.42 3793.57 1717.79 3793.25 1717.15 3792.76 1716.68 3792.09 1716.37 3791.43 1716.06 3790.49 1715.79 3789.28 1715.58L3789.28 1713.43 3798.76 1713.07 3801.23 1713.07 3800.79 1719.67 3801.36 1719.83C3802.98 1718.21 3804.31 1716.99 3805.35 1716.17 3806.39 1715.34 3807.39 1714.68 3808.37 1714.18 3809.34 1713.68 3810.25 1713.32 3811.1 1713.11 3811.95 1712.89 3812.82 1712.78 3813.72 1712.78Z" fill="#FFC000" fill-rule="evenodd"/><text fill="#000000" fill-opacity="0" font-family="Arial,Arial_MSFontService,sans-serif" font-size="39.3926" x="3789.28" y="1747.25">m</text><path d="M3786.3 1684.67 3820.8 1684.67 3855.3 1684.67 3855.3 1689.67 3820.8 1689.67 3786.3 1689.67Z" fill="#FFC000" fill-rule="evenodd"/></g></svg>