<svg width="3956" height="1625" xmlns="http://www.w3.org/2000/svg" xmlns:xlink="http://www.w3.org/1999/xlink" overflow="hidden"><defs><clipPath id="clip0"><rect x="199" y="487" width="3956" height="1625"/></clipPath><clipPath id="clip1"><rect x="2756" y="1838" width="206" height="199"/></clipPath><clipPath id="clip2"><rect x="2756" y="1838" width="206" height="199"/></clipPath><clipPath id="clip3"><rect x="2756" y="1838" width="206" height="199"/></clipPath><clipPath id="clip4"><rect x="1208" y="1838" width="206" height="199"/></clipPath><clipPath id="clip5"><rect x="1208" y="1838" width="206" height="199"/></clipPath><clipPath id="clip6"><rect x="1208" y="1838" width="206" height="199"/></clipPath><clipPath id="clip7"><rect x="235" y="658" width="200" height="195"/></clipPath><clipPath id="clip8"><rect x="235" y="658" width="200" height="195"/></clipPath><clipPath id="clip9"><rect x="235" y="658" width="200" height="195"/></clipPath><clipPath id="clip10"><rect x="3434" y="675" width="172" height="167"/></clipPath><clipPath id="clip11"><rect x="3434" y="675" width="172" height="167"/></clipPath><clipPath id="clip12"><rect x="3434" y="675" width="172" height="167"/></clipPath><clipPath id="clip13"><rect x="235" y="895" width="200" height="193"/></clipPath><clipPath id="clip14"><rect x="235" y="895" width="200" height="193"/></clipPath><clipPath id="clip15"><rect x="235" y="895" width="200" height="193"/></clipPath><clipPath id="clip16"><rect x="235" y="1130" width="200" height="195"/></clipPath><clipPath id="clip17"><rect x="235" y="1130" width="200" height="195"/></clipPath><clipPath id="clip18"><rect x="235" y="1130" width="200" height="195"/></clipPath><clipPath id="clip19"><rect x="235" y="1366" width="200" height="193"/></clipPath><clipPath id="clip20"><rect x="235" y="1366" width="200" height="193"/></clipPath><clipPath id="clip21"><rect x="235" y="1366" width="200" height="193"/></clipPath><clipPath id="clip22"><rect x="235" y="1606" width="200" height="193"/></clipPath><clipPath id="clip23"><rect x="235" y="1606" width="200" height="193"/></clipPath><clipPath id="clip24"><rect x="235" y="1606" width="200" height="193"/></clipPath><clipPath id="clip25"><rect x="1731" y="1838" width="205" height="199"/></clipPath><clipPath id="clip26"><rect x="1731" y="1838" width="205" height="199"/></clipPath><clipPath id="clip27"><rect x="1731" y="1838" width="205" height="199"/></clipPath><clipPath id="clip28"><rect x="2251" y="1838" width="207" height="199"/></clipPath><clipPath id="clip29"><rect x="2251" y="1838" width="207" height="199"/></clipPath><clipPath id="clip30"><rect x="2251" y="1838" width="207" height="199"/></clipPath><clipPath id="clip31"><rect x="3283" y="1844" width="206" height="198"/></clipPath><clipPath id="clip32"><rect x="3283" y="1844" width="206" height="198"/></clipPath><clipPath id="clip33"><rect x="3283" y="1844" width="206" height="198"/></clipPath><clipPath id="clip34"><rect x="3797" y="1838" width="205" height="199"/></clipPath><clipPath id="clip35"><rect x="3797" y="1838" width="205" height="199"/></clipPath><clipPath id="clip36"><rect x="3797" y="1838" width="205" height="199"/></clipPath></defs><g clip-path="url(#clip0)" transform="translate(-199 -487)"><path d="M199 657 951.5 657 1049 754.5 951.5 852 199 852Z" fill="#200C86" fill-rule="evenodd"/><g clip-path="url(#clip1)"><g clip-path="url(#clip2)"><g clip-path="url(#clip3)"><path d="M177.581 32.5875 71.9813 132.412 21.2437 80.4375 3.7125 97.1437 71.1562 166.444 88.8937 149.944 194.287 49.9125Z" fill="#FFC000" transform="matrix(1.0303 0 0 1 2757 1838)"/></g></g></g><g clip-path="url(#clip4)"><g clip-path="url(#clip5)"><g clip-path="url(#clip6)"><path d="M172.012 43.5187 154.481 25.9875 99 81.4688 43.5187 25.9875 25.9875 43.5187 81.4688 99 25.9875 154.481 43.5187 172.012 99 116.531 154.481 172.012 172.012 154.481 116.531 99Z" fill="#FF0000" transform="matrix(1.03535 0 0 1 1209 1838)"/></g></g></g><g clip-path="url(#clip7)"><g clip-path="url(#clip8)"><g clip-path="url(#clip9)"><path d="M88.4584 160.833 84.4376 160.833 84.4376 152.792 28.1459 152.792 28.1459 160.833 24.125 160.833C19.7021 160.833 16.0833 164.452 16.0833 168.875 16.0833 173.298 19.7021 176.917 24.125 176.917L88.4584 176.917C92.8813 176.917 96.5001 173.298 96.5001 168.875 96.5001 164.452 92.8813 160.833 88.4584 160.833Z" fill="#FFFFFF" transform="matrix(1.03627 0 0 1 235 659)"/><path d="M88.2574 120.826C90.6699 118.414 90.6699 114.594 88.2574 112.382L56.4928 80.6178C54.0803 78.2053 50.2605 78.2053 48.049 80.6178L40.2084 88.4584 80.4167 128.667 88.2574 120.826Z" fill="#FFFFFF" transform="matrix(1.03627 0 0 1 235 659)"/><path d="M136.507 64.1324C138.92 66.5449 142.74 66.5449 144.951 64.1324L152.792 56.2917 112.583 16.0833 104.743 23.924C102.33 26.3365 102.33 30.1563 104.743 32.3677L136.507 64.1324Z" fill="#FFFFFF" transform="matrix(1.03627 0 0 1 235 659)"/><path d="M174.906 134.698 120.625 80.4167 132.688 68.3542 100.521 36.1875 60.3126 76.3959 92.4793 108.563 108.563 92.4793 162.844 146.761C166.262 150.178 171.489 150.178 174.906 146.761 178.324 143.343 178.324 138.116 174.906 134.698Z" fill="#FFFFFF" transform="matrix(1.03627 0 0 1 235 659)"/></g></g></g><g clip-path="url(#clip10)"><g clip-path="url(#clip11)"><g clip-path="url(#clip12)"><path d="M83.4999 150.126C72.1926 150.126 62.277 142.124 59.8416 131.164 57.2322 120.031 62.7988 108.724 73.0624 103.853L73.0624 27.3114C73.0624 21.5708 77.7592 16.8739 83.4999 16.8739 89.2405 16.8739 93.9373 21.5708 93.9373 27.3114L93.9373 103.853C104.201 108.724 109.594 120.031 107.158 131.164 104.549 142.124 94.8071 149.952 83.4999 150.126L83.4999 150.126ZM104.375 97.9384 104.375 27.3114C104.375 15.8302 94.9811 6.43645 83.4999 6.43645 72.0186 6.43645 62.6249 15.6562 62.6249 27.3114L62.6249 97.9384C50.6218 106.984 45.751 122.64 50.4478 136.731 55.1447 150.996 68.5395 160.563 83.4999 160.563 98.4602 160.563 111.855 150.996 116.552 136.731 121.249 122.64 116.378 106.984 104.375 97.9384Z" fill="#FF0000" transform="matrix(1.02994 0 0 1 3434 675)"/><path d="M86.979 108.724 86.979 66.6259 80.0207 66.6259 80.0207 108.724C71.3228 110.463 65.2343 118.639 66.278 127.511 67.1478 136.383 74.628 143.167 83.4999 143.167 92.3717 143.167 99.8519 136.383 100.722 127.511 101.765 118.639 95.6769 110.463 86.979 108.724Z" fill="#FF0000" transform="matrix(1.02994 0 0 1 3434 675)"/></g></g></g><text fill="#FFFFFF" font-family="Calibri,Calibri_MSFontService,sans-serif" font-weight="400" font-size="83" transform="matrix(1 0 0 1 468.071 785)">Robust?</text><path d="M199 894 952 894 1049 991 952 1088 199 1088Z" fill="#4E0C85" fill-rule="evenodd"/><text fill="#FFFFFF" font-family="Calibri,Calibri_MSFontService,sans-serif" font-weight="400" font-size="83" transform="matrix(1 0 0 1 468.071 1021)">Hygienic<tspan font-size="83" x="284.258" y="0">?</tspan></text><g clip-path="url(#clip13)"><g clip-path="url(#clip14)"><g clip-path="url(#clip15)"><path d="M96.4999 20.1041C96.4999 20.1041 46.2395 90.8708 46.2395 122.635 46.2395 150.379 68.7562 172.896 96.4999 172.896 124.244 172.896 146.76 150.379 146.76 122.635 146.76 90.6697 96.4999 20.1041 96.4999 20.1041Z" fill="#FFFFFF" transform="matrix(1.03627 0 0 1 235 895)"/></g></g></g><path d="M199 1130 952 1130 1049 1227 952 1324 199 1324Z" fill="#830E7F" fill-rule="evenodd"/><text fill="#FFFFFF" font-family="Calibri,Calibri_MSFontService,sans-serif" font-weight="400" font-size="83" transform="matrix(1 0 0 1 469.562 1255)">Easy <tspan font-size="83" x="165" y="0">to</tspan><tspan font-size="83" x="254.146" y="0">print</tspan>?</text><g clip-path="url(#clip16)"><g clip-path="url(#clip17)"><g clip-path="url(#clip18)"><path d="M132.688 125.651 132.487 165.86 60.7146 165.86 60.3126 125.651 132.688 125.651ZM48.6521 177.922 144.348 177.922 144.549 113.589 48.25 113.589 48.6521 177.922Z" fill="#FFFFFF" transform="matrix(1.03627 0 0 1 235 1131)"/><path d="M76.3959 133.693 116.604 133.693 116.604 141.735 76.3959 141.735Z" fill="#FFFFFF" transform="matrix(1.03627 0 0 1 235 1131)"/><path d="M76.3959 149.776 116.604 149.776 116.604 157.818 76.3959 157.818Z" fill="#FFFFFF" transform="matrix(1.03627 0 0 1 235 1131)"/><path d="M132.688 74.3855 60.3126 74.3855 60.3126 28.1459 104.542 28.1459 104.542 56.2917 132.688 56.2917 132.688 74.3855ZM116.604 28.95 130.476 44.2292 116.604 44.2292 116.604 28.95ZM28.1459 84.4376C23.7229 84.4376 20.1042 80.8188 20.1042 76.3959 20.1042 71.973 23.7229 68.3542 28.1459 68.3542 32.5688 68.3542 36.1875 71.973 36.1875 76.3959 36.1875 80.8188 32.5688 84.4376 28.1459 84.4376ZM176.917 56.2917 144.75 56.2917 144.75 41.8167 121.228 16.0833 48.25 16.0833 48.25 56.2917 16.0833 56.2917C11.6604 56.2917 8.04167 59.9105 8.04167 64.3334L8.04167 144.75C8.04167 149.173 11.6604 152.792 16.0833 152.792L40.2084 152.792 40.2084 106.552 152.792 106.552 152.792 152.792 176.917 152.792C181.34 152.792 184.959 149.173 184.959 144.75L184.959 64.3334C184.959 59.9105 181.34 56.2917 176.917 56.2917Z" fill="#FFFFFF" transform="matrix(1.03627 0 0 1 235 1131)"/></g></g></g><path d="M199 1368 951.5 1368 1049 1465.5 951.5 1563 199 1563Z" fill="#820951" fill-rule="evenodd"/><text fill="#FFFFFF" font-family="Calibri,Calibri_MSFontService,sans-serif" font-weight="400" font-size="83" transform="matrix(1 0 0 1 468.071 1498)">Available<tspan font-size="83" x="302.615" y="0">?</tspan></text><g clip-path="url(#clip19)"><g clip-path="url(#clip20)"><g clip-path="url(#clip21)"><path d="M54.2812 132.687C54.2812 140.46 47.9805 146.76 40.2083 146.76 32.436 146.76 26.1354 140.46 26.1354 132.687 26.1354 124.915 32.436 118.614 40.2083 118.614 47.9805 118.614 54.2812 124.915 54.2812 132.687Z" fill="#FFFFFF" transform="matrix(1.03627 0 0 1 235 1366)"/><path d="M170.885 132.687C170.885 140.46 164.585 146.76 156.812 146.76 149.04 146.76 142.739 140.46 142.739 132.687 142.739 124.915 149.04 118.614 156.812 118.614 164.585 118.614 170.885 124.915 170.885 132.687Z" fill="#FFFFFF" transform="matrix(1.03627 0 0 1 235 1366)"/><path d="M8.04166 48.25 120.625 48.25 120.625 96.4999 8.04166 96.4999Z" fill="#FFFFFF" transform="matrix(1.03627 0 0 1 235 1366)"/><path d="M136.708 68.3541 148.771 68.3541C152.389 68.3541 155.606 70.7666 156.41 74.1843L160.431 88.0562C160.431 88.2572 160.632 88.2572 160.632 88.4583L136.708 88.4583 136.708 68.3541ZM148.771 60.3124 128.667 60.3124 128.667 88.4583 128.667 100.521 128.667 132.687 136.708 132.687C136.708 121.63 145.755 112.583 156.812 112.583 167.87 112.583 176.917 121.63 176.917 132.687 181.339 132.687 184.958 129.069 184.958 124.646L184.958 104.542C184.958 101.928 183.752 99.7166 181.742 98.1082L171.086 90.0666C169.679 89.0614 168.674 87.453 168.272 85.8447L164.251 71.9728C162.24 65.1374 155.807 60.3124 148.771 60.3124Z" fill="#FFFFFF" transform="matrix(1.03627 0 0 1 235 1366)"/><path d="M120.625 132.687 60.3124 132.687C60.3124 121.63 51.2656 112.583 40.2083 112.583 29.151 112.583 20.1041 121.63 20.1041 132.687L8.04166 132.687 8.04166 104.542 120.625 104.542 120.625 132.687Z" fill="#FFFFFF" transform="matrix(1.03627 0 0 1 235 1366)"/></g></g></g><path d="M199 1606 951.5 1606 1049 1703.5 951.5 1801 199 1801Z" fill="#800A26" fill-rule="evenodd"/><text fill="#FFFFFF" font-family="Calibri,Calibri_MSFontService,sans-serif" font-weight="400" font-size="83" transform="matrix(1 0 0 1 468.071 1736)">Affordable?</text><g clip-path="url(#clip22)"><g clip-path="url(#clip23)"><g clip-path="url(#clip24)"><path d="M172.896 142.739 166.864 148.771 28.1458 148.771 20.1041 140.729 20.1041 100.521 28.1458 92.4791 166.864 92.4791 172.896 98.5103 172.896 142.739ZM8.04166 80.4166 8.04166 160.833 184.958 160.833 184.958 80.4166 8.04166 80.4166Z" fill="#FFFFFF" transform="matrix(1.03627 0 0 1 235 1606)"/><path d="M112.583 120.625C112.583 131.728 105.382 140.729 96.4999 140.729 87.6173 140.729 80.4166 131.728 80.4166 120.625 80.4166 109.522 87.6173 100.521 96.4999 100.521 105.382 100.521 112.583 109.522 112.583 120.625Z" fill="#FFFFFF" transform="matrix(1.03627 0 0 1 235 1606)"/><path d="M52.2708 120.625C52.2708 123.956 49.5705 126.656 46.2395 126.656 42.9086 126.656 40.2083 123.956 40.2083 120.625 40.2083 117.294 42.9086 114.594 46.2395 114.594 49.5705 114.594 52.2708 117.294 52.2708 120.625Z" fill="#FFFFFF" transform="matrix(1.03627 0 0 1 235 1606)"/><path d="M152.792 120.625C152.792 123.956 150.091 126.656 146.76 126.656 143.429 126.656 140.729 123.956 140.729 120.625 140.729 117.294 143.429 114.594 146.76 114.594 150.091 114.594 152.792 117.294 152.792 120.625Z" fill="#FFFFFF" transform="matrix(1.03627 0 0 1 235 1606)"/><path d="M132.486 41.6156 135.502 49.2552 147.564 46.8427 139.121 25.7333 30.9604 69.9624 92.8812 57.6989Z" fill="#FFFFFF" transform="matrix(1.03627 0 0 1 235 1606)"/><path d="M122.032 72.3749 153.797 66.1427 155.204 72.3749 167.468 72.3749 163.447 51.8687 60.3124 72.3749Z" fill="#FFFFFF" transform="matrix(1.03627 0 0 1 235 1606)"/></g></g></g><text font-family="Calibri,Calibri_MSFontService,sans-serif" font-weight="400" font-size="110" transform="matrix(1 0 0 1 1150.25 624)">PC<tspan font-size="110" x="115.156" y="0">-</tspan><tspan font-size="110" x="148.958" y="0">ABS</tspan><tspan font-size="110" x="596.451" y="0">ABS</tspan><tspan font-size="110" x="1073.54" y="0">Nylon</tspan><tspan font-size="110" x="1590.86" y="0">PCTG</tspan><tspan font-size="110" x="2019.98" y="6">PLA/PLA+</tspan><tspan font-size="110" x="2633.58" y="0">PETG</tspan></text><path d="M1225 755C1225 709.16 1263.73 672 1311.5 672 1359.27 672 1398 709.16 1398 755 1398 800.84 1359.27 838 1311.5 838 1263.73 838 1225 800.84 1225 755Z" fill="#4EA72E" fill-rule="evenodd"/><path d="M1747 755C1747 709.16 1785.73 672 1833.5 672 1881.27 672 1920 709.16 1920 755 1920 800.84 1881.27 838 1833.5 838 1785.73 838 1747 800.84 1747 755Z" fill="#4EA72E" fill-rule="evenodd"/><path d="M2269 755C2269 709.16 2307.5 672 2355 672 2402.5 672 2441 709.16 2441 755 2441 800.84 2402.5 838 2355 838 2307.5 838 2269 800.84 2269 755Z" fill="#4EA72E" fill-rule="evenodd"/><path d="M2773 755C2773 709.16 2811.5 672 2859 672 2906.5 672 2945 709.16 2945 755 2945 800.84 2906.5 838 2859 838 2811.5 838 2773 800.84 2773 755Z" fill="#4EA72E" fill-rule="evenodd"/><path d="M3299 761.5C3299 715.384 3337.73 678 3385.5 678 3433.27 678 3472 715.384 3472 761.5 3472 807.616 3433.27 845 3385.5 845 3337.73 845 3299 807.616 3299 761.5Z" fill="#FFC000" fill-rule="evenodd"/><path d="M3813 755C3813 709.16 3851.5 672 3899 672 3946.5 672 3985 709.16 3985 755 3985 800.84 3946.5 838 3899 838 3851.5 838 3813 800.84 3813 755Z" fill="#4EA72E" fill-rule="evenodd"/><path d="M1225 988C1225 942.161 1263.73 905 1311.5 905 1359.27 905 1398 942.161 1398 988 1398 1033.84 1359.27 1071 1311.5 1071 1263.73 1071 1225 1033.84 1225 988Z" fill="#4EA72E" fill-rule="evenodd"/><path d="M1747 988C1747 942.161 1785.73 905 1833.5 905 1881.27 905 1920 942.161 1920 988 1920 1033.84 1881.27 1071 1833.5 1071 1785.73 1071 1747 1033.84 1747 988Z" fill="#4EA72E" fill-rule="evenodd"/><path d="M2269 988C2269 942.161 2307.5 905 2355 905 2402.5 905 2441 942.161 2441 988 2441 1033.84 2402.5 1071 2355 1071 2307.5 1071 2269 1033.84 2269 988Z" fill="#FFC000" fill-rule="evenodd"/><path d="M2773 988C2773 942.161 2811.5 905 2859 905 2906.5 905 2945 942.161 2945 988 2945 1033.84 2906.5 1071 2859 1071 2811.5 1071 2773 1033.84 2773 988Z" fill="#4EA72E" fill-rule="evenodd"/><path d="M3299 994C3299 948.16 3337.73 911 3385.5 911 3433.27 911 3472 948.16 3472 994 3472 1039.84 3433.27 1077 3385.5 1077 3337.73 1077 3299 1039.84 3299 994Z" fill="#4EA72E" fill-rule="evenodd"/><path d="M3813 988C3813 942.161 3851.5 905 3899 905 3946.5 905 3985 942.161 3985 988 3985 1033.84 3946.5 1071 3899 1071 3851.5 1071 3813 1033.84 3813 988Z" fill="#4EA72E" fill-rule="evenodd"/><path d="M1225 1227C1225 1181.16 1263.73 1144 1311.5 1144 1359.27 1144 1398 1181.16 1398 1227 1398 1272.84 1359.27 1310 1311.5 1310 1263.73 1310 1225 1272.84 1225 1227Z" fill="#FF0000" fill-rule="evenodd"/><path d="M1225 1465C1225 1419.16 1263.73 1382 1311.5 1382 1359.27 1382 1398 1419.16 1398 1465 1398 1510.84 1359.27 1548 1311.5 1548 1263.73 1548 1225 1510.84 1225 1465Z" fill="#FF0000" fill-rule="evenodd"/><path d="M1225 1703.5C1225 1657.38 1263.73 1620 1311.5 1620 1359.27 1620 1398 1657.38 1398 1703.5 1398 1749.62 1359.27 1787 1311.5 1787 1263.73 1787 1225 1749.62 1225 1703.5Z" fill="#FF0000" fill-rule="evenodd"/><path d="M1747 1227C1747 1181.16 1785.73 1144 1833.5 1144 1881.27 1144 1920 1181.16 1920 1227 1920 1272.84 1881.27 1310 1833.5 1310 1785.73 1310 1747 1272.84 1747 1227Z" fill="#FF0000" fill-rule="evenodd"/><path d="M2269 1227C2269 1181.16 2307.5 1144 2355 1144 2402.5 1144 2441 1181.16 2441 1227 2441 1272.84 2402.5 1310 2355 1310 2307.5 1310 2269 1272.84 2269 1227Z" fill="#FF0000" fill-rule="evenodd"/><path d="M2773 1227C2773 1181.16 2811.5 1144 2859 1144 2906.5 1144 2945 1181.16 2945 1227 2945 1272.84 2906.5 1310 2859 1310 2811.5 1310 2773 1272.84 2773 1227Z" fill="#4EA72E" fill-rule="evenodd"/><path d="M3299 1233.5C3299 1187.38 3337.73 1150 3385.5 1150 3433.27 1150 3472 1187.38 3472 1233.5 3472 1279.62 3433.27 1317 3385.5 1317 3337.73 1317 3299 1279.62 3299 1233.5Z" fill="#4EA72E" fill-rule="evenodd"/><path d="M3813 1227C3813 1181.16 3851.5 1144 3899 1144 3946.5 1144 3985 1181.16 3985 1227 3985 1272.84 3946.5 1310 3899 1310 3851.5 1310 3813 1272.84 3813 1227Z" fill="#4EA72E" fill-rule="evenodd"/><path d="M1747 1465C1747 1419.16 1785.73 1382 1833.5 1382 1881.27 1382 1920 1419.16 1920 1465 1920 1510.84 1881.27 1548 1833.5 1548 1785.73 1548 1747 1510.84 1747 1465Z" fill="#FF0000" fill-rule="evenodd"/><path d="M2269 1465C2269 1419.16 2307.5 1382 2355 1382 2402.5 1382 2441 1419.16 2441 1465 2441 1510.84 2402.5 1548 2355 1548 2307.5 1548 2269 1510.84 2269 1465Z" fill="#FF0000" fill-rule="evenodd"/><path d="M2773 1465C2773 1419.16 2811.5 1382 2859 1382 2906.5 1382 2945 1419.16 2945 1465 2945 1510.84 2906.5 1548 2859 1548 2811.5 1548 2773 1510.84 2773 1465Z" fill="#FFC000" fill-rule="evenodd"/><path d="M3299 1471C3299 1425.16 3337.73 1388 3385.5 1388 3433.27 1388 3472 1425.16 3472 1471 3472 1516.84 3433.27 1554 3385.5 1554 3337.73 1554 3299 1516.84 3299 1471Z" fill="#4EA72E" fill-rule="evenodd"/><path d="M3813 1465C3813 1419.16 3851.5 1382 3899 1382 3946.5 1382 3985 1419.16 3985 1465 3985 1510.84 3946.5 1548 3899 1548 3851.5 1548 3813 1510.84 3813 1465Z" fill="#4EA72E" fill-rule="evenodd"/><path d="M1747 1703.5C1747 1657.38 1785.73 1620 1833.5 1620 1881.27 1620 1920 1657.38 1920 1703.5 1920 1749.62 1881.27 1787 1833.5 1787 1785.73 1787 1747 1749.62 1747 1703.5Z" fill="#4EA72E" fill-rule="evenodd"/><path d="M2269 1703.5C2269 1657.38 2307.5 1620 2355 1620 2402.5 1620 2441 1657.38 2441 1703.5 2441 1749.62 2402.5 1787 2355 1787 2307.5 1787 2269 1749.62 2269 1703.5Z" fill="#FF0000" fill-rule="evenodd"/><path d="M2773 1703.5C2773 1657.38 2811.5 1620 2859 1620 2906.5 1620 2945 1657.38 2945 1703.5 2945 1749.62 2906.5 1787 2859 1787 2811.5 1787 2773 1749.62 2773 1703.5Z" fill="#4EA72E" fill-rule="evenodd"/><path d="M3299 1709.5C3299 1663.38 3337.73 1626 3385.5 1626 3433.27 1626 3472 1663.38 3472 1709.5 3472 1755.62 3433.27 1793 3385.5 1793 3337.73 1793 3299 1755.62 3299 1709.5Z" fill="#4EA72E" fill-rule="evenodd"/><path d="M3813 1703.5C3813 1657.38 3851.5 1620 3899 1620 3946.5 1620 3985 1657.38 3985 1703.5 3985 1749.62 3946.5 1787 3899 1787 3851.5 1787 3813 1749.62 3813 1703.5Z" fill="#4EA72E" fill-rule="evenodd"/><g clip-path="url(#clip25)"><g clip-path="url(#clip26)"><g clip-path="url(#clip27)"><path d="M172.012 43.5187 154.481 25.9875 99 81.4688 43.5187 25.9875 25.9875 43.5187 81.4688 99 25.9875 154.481 43.5187 172.012 99 116.531 154.481 172.012 172.012 154.481 116.531 99Z" fill="#FF0000" transform="matrix(1.03535 0 0 1 1731 1838)"/></g></g></g><g clip-path="url(#clip28)"><g clip-path="url(#clip29)"><g clip-path="url(#clip30)"><path d="M172.012 43.5187 154.481 25.9875 99 81.4688 43.5187 25.9875 25.9875 43.5187 81.4688 99 25.9875 154.481 43.5187 172.012 99 116.531 154.481 172.012 172.012 154.481 116.531 99Z" fill="#FF0000" transform="matrix(1.03535 0 0 1 2252 1838)"/></g></g></g><g clip-path="url(#clip31)"><g clip-path="url(#clip32)"><g clip-path="url(#clip33)"><path d="M176.684 32.4229 71.6177 131.744 21.1365 80.0312 3.69375 96.6531 70.7969 165.603 88.4448 149.186 193.306 49.6604Z" fill="#FFC000" transform="matrix(1.04061 0 0 1 3283 1845)"/></g></g></g><g clip-path="url(#clip34)"><g clip-path="url(#clip35)"><g clip-path="url(#clip36)"><path d="M177.581 32.5875 71.9813 132.412 21.2437 80.4375 3.7125 97.1437 71.1562 166.444 88.8937 149.944 194.287 49.9125Z" fill="#4EA72E" transform="matrix(1.03535 0 0 1 3797 1838)"/></g></g></g><path d="M199 1838 1085.5 1838 1183 1935.5 1085.5 2033 199 2033Z" fill="#4EA72E" fill-rule="evenodd"/><text fill="#FFFFFF" font-family="Calibri,Calibri_MSFontService,sans-serif" font-weight="700" font-size="147" transform="matrix(1 0 0 1 303.979 1985)">SUITABILITY</text></g></svg>