<svg width="4138" height="1499" xmlns="http://www.w3.org/2000/svg" xmlns:xlink="http://www.w3.org/1999/xlink" overflow="hidden"><defs><clipPath id="clip0"><rect x="85" y="605" width="4138" height="1499"/></clipPath></defs><g clip-path="url(#clip0)" transform="translate(-85 -605)"><rect x="84.9999" y="605" width="4078" height="1499" fill="#FFFFFF"/><text fill="#200C86" font-family="Calibri,Calibri_MSFontService,sans-serif" font-weight="700" font-size="92" transform="matrix(1 0 0 1 231.802 756)">Standard Hinge<tspan font-size="92" x="1390.27" y="-8">Flexible Joint</tspan><tspan font-size="92" x="2728.46" y="-6">Shrink</tspan><tspan font-size="92" x="2990.28" y="-6">Tube Joint</tspan></text><path d="M295 1369.93C295 1301.48 350.483 1246 418.925 1246L438.075 1246C506.517 1246 562 1301.48 562 1369.93L562 1844.07C562 1912.52 506.517 1968 438.075 1968L418.925 1968C350.483 1968 295 1912.52 295 1844.07Z" fill="#820951" fill-rule="evenodd"/><path d="M581.423 894.685C619.198 837.493 696.184 821.753 753.375 859.528L769.377 870.097C826.568 907.872 842.309 984.858 804.534 1042.05L543.071 1437.9C505.296 1495.1 428.311 1510.84 371.119 1473.06L355.117 1462.49C297.926 1424.72 282.186 1347.73 319.961 1290.54Z" fill="#200C86" fill-rule="evenodd"/><path d="M389 1375.5C389 1353.68 406.685 1336 428.5 1336 450.315 1336 468 1353.68 468 1375.5 468 1397.32 450.315 1415 428.5 1415 406.685 1415 389 1397.32 389 1375.5Z" fill="#0F9ED5" fill-rule="evenodd"/><path d="M656 1409C656 1379.18 679.505 1355 708.5 1355 737.495 1355 761 1379.18 761 1409 761 1438.82 737.495 1463 708.5 1463 679.505 1463 656 1438.82 656 1409Z" fill="#FF0000" fill-rule="evenodd"/><text font-family="Arial,Arial_MSFontService,sans-serif" font-weight="400" font-size="83" transform="matrix(1 0 0 1 786.531 1432)">Abrasion</text><path d="M656 1544C656 1514.18 679.505 1490 708.5 1490 737.495 1490 761 1514.18 761 1544 761 1573.82 737.495 1598 708.5 1598 679.505 1598 656 1573.82 656 1544Z" fill="#FF0000" fill-rule="evenodd"/><text font-family="Arial,Arial_MSFontService,sans-serif" font-weight="400" font-size="83" transform="matrix(1 0 0 1 786.531 1567)">Complexity</text><path d="M656 1676C656 1646.18 679.505 1622 708.5 1622 737.495 1622 761 1646.18 761 1676 761 1705.82 737.495 1730 708.5 1730 679.505 1730 656 1705.82 656 1676Z" fill="#92D050" fill-rule="evenodd"/><text font-family="Arial,Arial_MSFontService,sans-serif" font-weight="400" font-size="83" transform="matrix(1 0 0 1 786.531 1699)">Stabilit<tspan font-size="83" x="247.5" y="0">y</tspan></text><path d="M1651 1536.93C1651 1468.48 1706.48 1413 1774.93 1413L1794.07 1413C1862.52 1413 1918 1468.48 1918 1536.93L1918 1844.07C1918 1912.52 1862.52 1968 1794.07 1968L1774.93 1968C1706.48 1968 1651 1912.52 1651 1844.07Z" fill="#820951" fill-rule="evenodd"/><path d="M1986.68 894.684C2024.46 837.493 2101.44 821.753 2158.63 859.528L2174.64 870.097C2231.83 907.872 2247.57 984.858 2209.79 1042.05L2005.89 1350.75C1968.12 1407.95 1891.13 1423.69 1833.94 1385.91L1817.94 1375.34C1760.75 1337.57 1745.01 1260.58 1782.78 1203.39Z" fill="#200C86" fill-rule="evenodd"/><path d="M1783.26 1492.29C1779.79 1417.93 1812 1346.38 1869.96 1299.67L1890.88 1325.63C1841.2 1365.67 1813.59 1427 1816.57 1490.74Z" fill="#0F9ED5" fill-rule="evenodd"/><path d="M2019 1409C2019 1379.18 2042.73 1355 2072 1355 2101.27 1355 2125 1379.18 2125 1409 2125 1438.82 2101.27 1463 2072 1463 2042.73 1463 2019 1438.82 2019 1409Z" fill="#92D050" fill-rule="evenodd"/><text font-family="Arial,Arial_MSFontService,sans-serif" font-weight="400" font-size="83" transform="matrix(1 0 0 1 2149.71 1432)">S<tspan font-size="83" x="55" y="0">imple design</tspan></text><path d="M2019 1544C2019 1514.18 2042.73 1490 2072 1490 2101.27 1490 2125 1514.18 2125 1544 2125 1573.82 2101.27 1598 2072 1598 2042.73 1598 2019 1573.82 2019 1544Z" fill="#92D050" fill-rule="evenodd"/><text font-family="Arial,Arial_MSFontService,sans-serif" font-weight="400" font-size="83" transform="matrix(1 0 0 1 2152.98 1567)">Fully <tspan font-size="83" x="197.083" y="0">printable</tspan></text><path d="M2019 1676C2019 1646.18 2042.73 1622 2072 1622 2101.27 1622 2125 1646.18 2125 1676 2125 1705.82 2101.27 1730 2072 1730 2042.73 1730 2019 1705.82 2019 1676Z" fill="#92D050" fill-rule="evenodd"/><text font-family="Arial,Arial_MSFontService,sans-serif" font-weight="400" font-size="83" transform="matrix(1 0 0 1 2156.26 1709)">Long<tspan font-size="83" x="183.333" y="0">-</tspan><tspan font-size="83" x="210.833" y="0">Lasting</tspan></text><path d="M2019 1816C2019 1786.18 2042.73 1762 2072 1762 2101.27 1762 2125 1786.18 2125 1816 2125 1845.82 2101.27 1870 2072 1870 2042.73 1870 2019 1845.82 2019 1816Z" fill="#92D050" fill-rule="evenodd"/><text font-family="Arial,Arial_MSFontService,sans-serif" font-weight="400" font-size="83" transform="matrix(1 0 0 1 2149.71 1839)">Spring <tspan font-size="83" x="261.25" y="0">effect</tspan></text><path d="M2017 1961.5C2017 1931.95 2040.51 1908 2069.5 1908 2098.49 1908 2122 1931.95 2122 1961.5 2122 1991.05 2098.49 2015 2069.5 2015 2040.51 2015 2017 1991.05 2017 1961.5Z" fill="#FF0000" fill-rule="evenodd"/><text font-family="Arial,Arial_MSFontService,sans-serif" font-weight="400" font-size="83" transform="matrix(1 0 0 1 2147.33 1984)">less<tspan font-size="83" x="169.583" y="0">stable</tspan></text><rect x="3052" y="1623" width="208" height="284" fill="#820951"/><path d="M3052 1623 3052 1455 3260 1623Z" fill="#820951" fill-rule="evenodd"/><path d="M0 167 0 0 208 167Z" fill="#200C86" fill-rule="evenodd" transform="matrix(1 0 0 -1 3051 1503)"/><rect x="3052" y="1051" width="208" height="285" fill="#200C86"/><rect x="3014.5" y="997.5" width="282" height="883" stroke="#0C445E" stroke-width="6.875" stroke-miterlimit="8" fill="#0F9ED5" fill-opacity="0.301961"/><path d="M3409 1409C3409 1379.18 3432.51 1355 3461.5 1355 3490.5 1355 3514 1379.18 3514 1409 3514 1438.82 3490.5 1463 3461.5 1463 3432.51 1463 3409 1438.82 3409 1409Z" fill="#92D050" fill-rule="evenodd"/><text font-family="Calibri,Calibri_MSFontService,sans-serif" font-weight="400" font-size="83" transform="matrix(1 0 0 1 3539.4 1429)">Eve<tspan font-size="83" x="115.867" y="0">n</tspan><tspan font-size="83" x="178.314" y="0">simpler</tspan></text><path d="M3409 1544C3409 1514.18 3432.51 1490 3461.5 1490 3490.5 1490 3514 1514.18 3514 1544 3514 1573.82 3490.5 1598 3461.5 1598 3432.51 1598 3409 1573.82 3409 1544Z" fill="#92D050" fill-rule="evenodd"/><text font-family="Calibri,Calibri_MSFontService,sans-serif" font-weight="400" font-size="83" transform="matrix(1 0 0 1 3539.4 1568)">Print<tspan font-size="83" x="160.233" y="0">-</tspan><tspan font-size="83" x="185.442" y="0">in</tspan><tspan font-size="83" x="247.89" y="0">-</tspan><tspan font-size="83" x="273.098" y="0">place</tspan></text><path d="M3407 1693C3407 1663.18 3430.73 1639 3460 1639 3489.27 1639 3513 1663.18 3513 1693 3513 1722.82 3489.27 1747 3460 1747 3430.73 1747 3407 1722.82 3407 1693Z" fill="#92D050" fill-rule="evenodd"/><text font-family="Calibri,Calibri_MSFontService,sans-serif" font-weight="400" font-size="83" transform="matrix(1 0 0 1 3539.4 1712)">Sealed</text><path d="M3407 1826.5C3407 1796.95 3430.73 1773 3460 1773 3489.27 1773 3513 1796.95 3513 1826.5 3513 1856.05 3489.27 1880 3460 1880 3430.73 1880 3407 1856.05 3407 1826.5Z" fill="#92D050" fill-rule="evenodd"/><text font-family="Calibri,Calibri_MSFontService,sans-serif" font-weight="400" font-size="83" transform="matrix(1 0 0 1 3539.4 1845)">Increased<tspan font-size="83" x="343.246" y="0">grip</tspan></text><path d="M3407 1960C3407 1930.18 3430.73 1906 3460 1906 3489.27 1906 3513 1930.18 3513 1960 3513 1989.82 3489.27 2014 3460 2014 3430.73 2014 3407 1989.82 3407 1960Z" fill="#FFC000" fill-rule="evenodd"/><text font-family="Calibri,Calibri_MSFontService,sans-serif" font-weight="400" font-size="83" transform="matrix(1 0 0 1 3539.4 1978)">long<tspan font-size="83" x="144.948" y="0">-</tspan><tspan font-size="83" x="170.156" y="0">lasting?</tspan></text></g></svg>